<svg display="none" width="0" height="0" version="1.1" xmlns="http://www.w3.org/2000/svg" xmlns:xlink="http://www.w3.org/1999/xlink">
    <defs>
        <g id="bookmark-outline" viewBox="0 0 1024 1024">
            <path class="path1" d="M725.333 128h-426.667c-47.147 0-84.907 38.187-84.907 85.333l-0.427 682.667 298.667-128 298.667 128v-682.667c0-47.147-38.187-85.333-85.333-85.333zM725.333 768l-213.333-92.8-213.333 92.8v-554.667h426.667v554.667z"></path>
        </g>
        <g id="delete" viewBox="0 0 1024 1024">
            <path class="path1" d="M256 810.667c0 47.147 38.187 85.333 85.333 85.333h341.333c47.147 0 85.333-38.187 85.333-85.333v-512h-512v512zM810.667 170.667h-149.333l-42.667-42.667h-213.333l-42.667 42.667h-149.333v85.333h597.333v-85.333z"></path>
        </g>
        <g id="exit-to-app" viewBox="0 0 1024 1024">
            <path class="path1" d="M430.293 664.96l60.373 60.373 213.333-213.333-213.333-213.333-60.373 60.373 110.293 110.293h-412.587v85.333h412.587l-110.293 110.293zM810.667 128h-597.333c-47.147 0-85.333 38.187-85.333 85.333v170.667h85.333v-170.667h597.333v597.333h-597.333v-170.667h-85.333v170.667c0 47.147 38.187 85.333 85.333 85.333h597.333c47.147 0 85.333-38.187 85.333-85.333v-597.333c0-47.147-38.187-85.333-85.333-85.333z"></path>
        </g>
        <g id="highlight-remove" viewBox="0 0 1024 1024">
            <path class="path1" d="M622.293 341.333l-110.293 110.293-110.293-110.293-60.373 60.373 110.293 110.293-110.293 110.293 60.373 60.373 110.293-110.293 110.293 110.293 60.373-60.373-110.293-110.293 110.293-110.293-60.373-60.373zM512 85.333c-235.733 0-426.667 190.933-426.667 426.667s190.933 426.667 426.667 426.667 426.667-190.933 426.667-426.667-190.933-426.667-426.667-426.667zM512 853.333c-188.16 0-341.333-153.173-341.333-341.333s153.173-341.333 341.333-341.333 341.333 153.173 341.333 341.333-153.173 341.333-341.333 341.333z"></path>
        </g>
        <g id="home" viewBox="0 0 1024 1024">
            <path class="path1" d="M426.667 853.333v-256h170.667v256h213.333v-341.333h128l-426.667-384-426.667 384h128v341.333z"></path>
        </g>
        <g id="info-outline" viewBox="0 0 1024 1024">
            <path class="path1" d="M469.333 725.333h85.333v-256h-85.333v256zM512 85.333c-235.733 0-426.667 190.933-426.667 426.667s190.933 426.667 426.667 426.667 426.667-190.933 426.667-426.667-190.933-426.667-426.667-426.667zM512 853.333c-188.16 0-341.333-153.173-341.333-341.333s153.173-341.333 341.333-341.333 341.333 153.173 341.333 341.333-153.173 341.333-341.333 341.333zM469.333 384h85.333v-85.333h-85.333v85.333z"></path>
        </g>
        <g id="launch" viewBox="0 0 1024 1024">
            <path class="path1" d="M810.667 810.667h-597.333v-597.333h298.667v-85.333h-298.667c-47.147 0-85.333 38.187-85.333 85.333v597.333c0 47.147 38.187 85.333 85.333 85.333h597.333c47.147 0 85.333-38.187 85.333-85.333v-298.667h-85.333v298.667zM597.333 128v85.333h152.96l-419.413 419.413 60.373 60.373 419.413-419.413v152.96h85.333v-298.667h-298.667z"></path>
        </g>
        <g id="reorder" viewBox="0 0 1024 1024">
            <path class="path1" d="M128 640h768v-85.333h-768v85.333zM128 810.667h768v-85.333h-768v85.333zM128 469.333h768v-85.333h-768v85.333zM128 213.333v85.333h768v-85.333h-768z"></path>
        </g>
        <g id="settings" viewBox="0 0 1024 1024">
            <path class="path1" d="M829.013 553.6c1.707-13.653 2.987-27.52 2.987-41.6s-1.28-27.947-2.987-41.6l90.24-70.613c8.107-6.4 10.453-17.92 5.12-27.307l-85.333-147.84c-5.333-9.173-16.427-13.013-26.027-9.173l-106.24 42.88c-21.973-16.853-46.080-31.147-72.107-42.027l-16-113.067c-1.92-10.027-10.667-17.92-21.333-17.92h-170.667c-10.667 0-19.413 7.893-21.12 17.92l-16 113.067c-26.027 10.88-50.133 24.96-72.107 42.027l-106.24-42.88c-9.6-3.627-20.693 0-26.027 9.173l-85.333 147.84c-5.333 9.173-2.987 20.693 5.12 27.307l90.027 70.613c-1.707 13.653-2.987 27.52-2.987 41.6s1.28 27.947 2.987 41.6l-90.027 70.613c-8.107 6.4-10.453 17.92-5.12 27.307l85.333 147.84c5.333 9.173 16.427 13.013 26.027 9.173l106.24-42.88c21.973 16.853 46.080 31.147 72.107 42.027l16 113.067c1.707 10.027 10.453 17.92 21.12 17.92h170.667c10.667 0 19.413-7.893 21.12-17.92l16-113.067c26.027-10.88 50.133-24.96 72.107-42.027l106.24 42.88c9.6 3.627 20.693 0 26.027-9.173l85.333-147.84c5.333-9.173 2.987-20.693-5.12-27.307l-90.027-70.613zM512 661.333c-82.56 0-149.333-66.773-149.333-149.333s66.773-149.333 149.333-149.333 149.333 66.773 149.333 149.333-66.773 149.333-149.333 149.333z"></path>
        </g>
        <g id="not-interested" viewBox="0 0 1024 1024">
            <path class="path1" d="M512 85.333c-235.733 0-426.667 190.933-426.667 426.667s190.933 426.667 426.667 426.667 426.667-190.933 426.667-426.667-190.933-426.667-426.667-426.667zM512 853.333c-188.587 0-341.333-152.747-341.333-341.333 0-78.933 27.093-151.253 71.893-209.067l478.507 478.507c-57.813 44.8-130.133 71.893-209.067 71.893zM781.44 721.067l-478.507-478.507c57.813-44.8 130.133-71.893 209.067-71.893 188.587 0 341.333 152.747 341.333 341.333 0 78.933-27.093 151.253-71.893 209.067z"></path>
        </g>
        <g id="play-arrow" viewBox="0 0 1024 1024">
            <path class="path1" d="M341.333 213.333v597.333l469.333-298.667z"></path>
        </g>
        <g id="add-circle-outline" viewBox="0 0 1024 1024">
            <path class="path1" d="M554.667 298.667h-85.333v170.667h-170.667v85.333h170.667v170.667h85.333v-170.667h170.667v-85.333h-170.667v-170.667zM512 85.333c-235.733 0-426.667 190.933-426.667 426.667s190.933 426.667 426.667 426.667 426.667-190.933 426.667-426.667-190.933-426.667-426.667-426.667zM512 853.333c-188.16 0-341.333-153.173-341.333-341.333s153.173-341.333 341.333-341.333 341.333 153.173 341.333 341.333-153.173 341.333-341.333 341.333z"></path>
        </g>
        <g id="create" viewBox="0 0 1024 1024">
            <path class="path1" d="M128 736v160h160l472.107-472.107-160-160-472.107 472.107zM883.413 300.587c16.64-16.64 16.64-43.733 0-60.373l-99.627-99.627c-16.64-16.64-43.733-16.64-60.373 0l-78.080 78.080 160 160 78.080-78.080z"></path>
        </g>
        <g id="keyboard-arrow-right" viewBox="0 0 1024 1024">
            <path class="path1" d="M366.293 702.293l195.627-195.627-195.627-195.627 60.373-60.373 256 256-256 256z"></path>
        </g>
        <g id="person" viewBox="0 0 1024 1024">
            <path class="path1" d="M512 512c94.293 0 170.667-76.587 170.667-170.667 0-94.293-76.373-170.667-170.667-170.667s-170.667 76.373-170.667 170.667c0 94.080 76.373 170.667 170.667 170.667zM512 597.333c-113.707 0-341.333 56.96-341.333 170.667v85.333h682.667v-85.333c0-113.707-227.627-170.667-341.333-170.667z"></path>
        </g>
    </defs>
</svg>
