<?xml version="1.0"?>
<svg width="120" height="120" xmlns="http://www.w3.org/2000/svg">
 <metadata id="metadata8">image/svg+xml</metadata>

 <g>
  <title>background</title>
  <rect fill="none" id="canvas_background" height="122" width="122" y="-1" x="-1"/>
 </g>
 <g>
  <title>Layer 1</title>
  <g id="g10" transform="matrix(0.37976716866036947,0,0,-0.37976716866036947,11.361732334017315,285.12619197724894) ">
   <g id="g12" transform="translate(-138.39999389648438,216) scale(0.10000000149011612) ">
    <path fill="#b3b3b3" fill-rule="nonzero" id="path14" d="m2660.443848,5191.240723l-1339.229858,-471.299805l211.619995,-1754.629883l1129.030029,-620.540039l1134.850098,628.949951l211.549561,1754.559814l-1347.819824,462.959961z"/>
    <path fill="#af2b2d" fill-rule="nonzero" id="path16" d="m3874.694092,4626.880859l-1217.379883,415.129883l0,-2548.979736l1020.219727,564.620117l197.160156,1569.229736z"/>
    <path fill="#df2e31" fill-rule="nonzero" id="path18" d="m1471.494019,4619.380859l181.339966,-1569.219727l1004.470215,-557.130127l0,2549.030029l-1185.810303,-422.680176l0.000122,0z"/>
    <path fill="#f2f2f2" fill-rule="nonzero" id="path20" d="m2939.493896,3774.190918l-279.959961,584.639648l-246.459961,-584.639648l526.419922,0zm106.73999,-245.830078l-742.109619,0l-166.020264,-415.26001l-308.819946,-5.709961l828.039917,1842.059814l856.899902,-1842.059814l-286.229736,0l-181.760254,420.969971z"/>
    <path fill="#b3b3b3" fill-rule="nonzero" id="path22" d="m2657.314209,4949.450684l2.209961,-590.620117l279.669922,-585.0896l-281.25,0l-0.629883,-245l388.899658,-0.380127l181.770264,-421.040039l295.489746,-5.47998l-866.159668,1847.609863z"/>
   </g>
  </g>
 </g>
</svg>